# xmcd
#
# Track frame offsets:
#	150
#	11804
#	23583
#	33541
#	47501
#	60485
#	76228
#	90795
#	103482
#	115587
#	128206
#	138555
#	151801
#	165312
#	183521
#	196523
#	210531
#	220546
#	232189
#	246378
#	262979
#	272726
#	285777
#	297964
#
# Disc length: 4153 seconds
#
# Revision: 0
# Processed by: cddbd v1.5.2PL0 Copyright (c) Steve Scherf et al.
# Submitted via: EasyCDDAExtractor 15.2.5.1
#
DISCID=3f103718
DTITLE=Sam Cooke - Hits of The 50's - Swing Low
DYEAR=1900
DGENRE=Soul
TTITLE0=Hey There
TTITLE1=Mona Lisa
TTITLE2=Too Young
TTITLE3=The Grat Pretender
TTITLE4=You You You
TTITLE5=Unchained melody
TTITLE6=The Wayward Wind
TTITLE7=Secret Love
TTITLE8=The Song From The Moulin Rouge
TTITLE9=I'm Walking Behind You
TTITLE10=Cry
TTITLE11=Venus
TTITLE12=Swing Low, Sweet Charriot
TTITLE13=I'm Just A Country Boy
TTITLE14=The Call The Wind Mariah
TTITLE15=Twilight On The Trail
TTITLE16=If I Had You
TTITLE17=Chain Gang
TTITLE18=Grandfathers Clock
TTITLE19=I Dream of Jeanie With The Light Brown Hair
TTITLE20=Pray
TTITLE21=Long, Long Ago
TTITLE22=You Belong To Me
TTITLE23=Goin' Home
EXTD=
EXTT0=
EXTT1=
EXTT2=
EXTT3=
EXTT4=
EXTT5=
EXTT6=
EXTT7=
EXTT8=
EXTT9=
EXTT10=
EXTT11=
EXTT12=
EXTT13=
EXTT14=
EXTT15=
EXTT16=
EXTT17=
EXTT18=
EXTT19=
EXTT20=
EXTT21=
EXTT22=
EXTT23=
PLAYORDER=
